<svg width="35" height="35" viewBox="0 0 35 35" fill="none" xmlns="http://www.w3.org/2000/svg">
<rect width="35" height="35" rx="17.5" fill="black"/>
<path d="M18.4688 18.0078H15.5469L15.5312 16.3984H17.9844C18.4167 16.3984 18.7708 16.3438 19.0469 16.2344C19.3229 16.1198 19.5286 15.9557 19.6641 15.7422C19.8047 15.5234 19.875 15.2578 19.875 14.9453C19.875 14.5911 19.8073 14.3047 19.6719 14.0859C19.5417 13.8672 19.3359 13.7083 19.0547 13.6094C18.7786 13.5104 18.4219 13.4609 17.9844 13.4609H16.3594V23H14.0156V11.625H17.9844C18.6458 11.625 19.237 11.6875 19.7578 11.8125C20.2839 11.9375 20.7292 12.1276 21.0938 12.3828C21.4583 12.638 21.737 12.9609 21.9297 13.3516C22.1224 13.737 22.2188 14.1953 22.2188 14.7266C22.2188 15.1953 22.112 15.6276 21.8984 16.0234C21.6901 16.4193 21.3594 16.7422 20.9062 16.9922C20.4583 17.2422 19.8724 17.3802 19.1484 17.4062L18.4688 18.0078ZM18.3672 23H14.9062L15.8203 21.1719H18.3672C18.7786 21.1719 19.1146 21.1068 19.375 20.9766C19.6354 20.8411 19.8281 20.6589 19.9531 20.4297C20.0781 20.2005 20.1406 19.9375 20.1406 19.6406C20.1406 19.3073 20.0833 19.0182 19.9688 18.7734C19.8594 18.5286 19.6823 18.3411 19.4375 18.2109C19.1927 18.0755 18.8698 18.0078 18.4688 18.0078H16.2109L16.2266 16.3984H19.0391L19.5781 17.0312C20.2708 17.0208 20.8281 17.1432 21.25 17.3984C21.6771 17.6484 21.987 17.974 22.1797 18.375C22.3776 18.776 22.4766 19.2057 22.4766 19.6641C22.4766 20.3932 22.3177 21.0078 22 21.5078C21.6823 22.0026 21.2161 22.375 20.6016 22.625C19.9922 22.875 19.2474 23 18.3672 23Z" fill="white"/>
</svg>
